<svg xmlns="http://www.w3.org/2000/svg" xmlns:xlink="http://www.w3.org/1999/xlink" width="533.182" height="451.607" viewBox="0 0 533.182 451.607">
  <defs>
    <linearGradient id="linear-gradient" x1="-0.73" y1="1.92" x2="2.189" y2="-1.408" gradientUnits="objectBoundingBox">
      <stop offset="0" stop-color="#e7a818"/>
      <stop offset="0" stop-color="#ebb81a"/>
      <stop offset="0.32" stop-color="#dfad17"/>
      <stop offset="0.68" stop-color="#b97e12"/>
      <stop offset="1" stop-color="#fff885"/>
    </linearGradient>
    <linearGradient id="linear-gradient-2" x1="-3.755" y1="-1.827" x2="2.515" y2="2.006" xlink:href="#linear-gradient"/>
    <linearGradient id="linear-gradient-3" x1="-2.904" y1="-3.383" x2="8.084" y2="9.08" xlink:href="#linear-gradient"/>
    <linearGradient id="linear-gradient-4" x1="-2.602" y1="-3.061" x2="8.488" y2="9.666" xlink:href="#linear-gradient"/>
    <linearGradient id="linear-gradient-5" x1="-2.602" y1="-3.061" x2="8.488" y2="9.666" xlink:href="#linear-gradient"/>
    <linearGradient id="linear-gradient-6" x1="-4.465" y1="-2.688" x2="16.632" y2="10.915" xlink:href="#linear-gradient"/>
    <linearGradient id="linear-gradient-7" x1="-5.684" y1="-3.225" x2="16.234" y2="9.883" xlink:href="#linear-gradient"/>
    <linearGradient id="linear-gradient-8" x1="-10.211" y1="-6.111" x2="11.175" y2="7.075" xlink:href="#linear-gradient"/>
    <linearGradient id="linear-gradient-9" x1="1.444" y1="1.196" x2="-0.405" y2="-0.225" xlink:href="#linear-gradient"/>
    <linearGradient id="linear-gradient-10" x1="3.17" y1="-1.138" x2="-4.458" y2="3.384" xlink:href="#linear-gradient"/>
    <linearGradient id="linear-gradient-11" x1="-4.671" y1="-2.706" x2="14.755" y2="8.904" xlink:href="#linear-gradient"/>
    <linearGradient id="linear-gradient-12" x1="-13.219" y1="-7.805" x2="6.117" y2="3.751" xlink:href="#linear-gradient"/>
    <linearGradient id="linear-gradient-13" x1="-22.247" y1="-5.849" x2="25.457" y2="7.505" xlink:href="#linear-gradient"/>
    <linearGradient id="linear-gradient-14" x1="-10.484" y1="-2.675" x2="36.83" y2="11.112" xlink:href="#linear-gradient"/>
    <linearGradient id="linear-gradient-15" x1="0" y1="0.5" x2="1" y2="0.5" xlink:href="#linear-gradient"/>
    <linearGradient id="linear-gradient-16" x1="-16.968" y1="-4.437" x2="30.975" y2="9.158" gradientUnits="objectBoundingBox">
      <stop offset="0" stop-color="#e09d18"/>
      <stop offset="0" stop-color="#f9c924"/>
      <stop offset="0.32" stop-color="#e4af18"/>
      <stop offset="0.68" stop-color="#fff98c"/>
      <stop offset="1" stop-color="#ffd440"/>
    </linearGradient>
    <linearGradient id="linear-gradient-17" x1="-17.494" y1="-4.902" x2="29.247" y2="9.178" xlink:href="#linear-gradient"/>
  </defs>
  <g id="Group_1" data-name="Group 1" transform="translate(-157.013 -70.408)">
    <path id="Path_1" data-name="Path 1" d="M518.37,522.015q-10.11-6.774-20.221-13.543c-1.2-.8-2.432-1.549-3.949-2.511,3.549-6.633,6.774-12.965,10.385-19.069.516-.873,3.335-1.391,4.345-.8,6.921,4.043,13.765,8.252,20.31,12.868,1.1.772,1.448,4.2.709,5.684-2.957,5.944-6.479,11.606-9.793,17.372Z" fill="url(#linear-gradient)"/>
    <path id="Path_2" data-name="Path 2" d="M262.418,328.835c-4.731,12.569-11.244,23.852-13.16,37.669,19.79-7.838,38.092-16.794,55.936-29.887-3.62-1.71-5.838-3.15-8.269-3.84q-19.5-5.531-39.094-10.727c-11.2-2.974-11-2.844-8.765-14.308.773-3.96,2.749-5.662,6.2-7.094,13.557-5.621,27.93-9.458,40.126-18.124,2.36-1.677,4.16-3.379,3.135-6.574-.708-2.2-1.584-3.056-4.452-2.827-7.8.622-15.743,1.175-23.482.356-10.636-1.126-15.127-7.828-13.744-18.485,1.222-9.417,6.045-16.69,13.7-22.067,6.158-4.324,12.984-4.485,18.456.8,6.015,5.809,11,12.687,16.955,19.724l16.146-6.54a54,54,0,0,1-1.919-32.8,37.921,37.921,0,0,1,5.482-12.5c4.837-6.735,11.858-6.573,17.331-.331,10.73,12.238,11.809,32.246,2.465,46.64-1.454,2.238-3.113,4.343-5.423,7.545,4.571,2.222,8.674,5.161,13.217,6.226,8.754,2.051,17.708,1.582,26.581-.237,2.822-.579,3.98-1.512,3.841-4.628-.927-20.676-2.621-41.225-6.628-61.6-1.293-6.577,1.32-13.253,4.193-19.55,9.548,25.815,10.278,52.9,12.319,80.327,5.218-1.442,7.938-5.7,11.33-8.991,3.478-3.373,6.764-6.945,10.133-10.43l1.247.542a24.641,24.641,0,0,1-.344,4.334c-3.6,14.038,5.317,18.834,17.707,17.511a19.73,19.73,0,0,0,3.876-.984c10.3-3.317,13.31-6.69,12.852-17.422-.947-22.146-2.367-44.276-3.863-66.4-1.656-24.491-3.559-48.966-5.5-73.437-.314-3.962-1.4-7.86-2.074-11.8a7.75,7.75,0,0,1-.246-3.422,107.05,107.05,0,0,1,6-15.105,263.053,263.053,0,0,1,17.232,42.332l-1.386,1.04-8.281-6.582c.153,2.921.233,5.307.409,7.685,2.558,34.572,5.3,69.132,7.609,103.72.838,12.542-.318,25.1-5.454,36.751a57.981,57.981,0,0,1-9.816,15.766c-11.767,12.81-31.906,7.768-36.965-8.85-.256-.841-.488-1.689-.443-1.534-4.017,3.5-8.374,7.243-12.629,11.093a3.338,3.338,0,0,0-.809,2.379c.951,18.845.591,37.838,5.765,56.235,2.586,9.194,6.9,14.75,12.608,17.461-1.7-5.52-4.4-11.4-5.229-17.539-3.186-23.528,13.945-42.741,37.642-43.382,15.033-.406,28.5,3.488,40.417,12.659,1.348,1.037,2.54,2.279,3.8,3.426q-.241.519-.482,1.038a46.58,46.58,0,0,1-5.238-1.1c-20.656-6.8-40.529-3.5-59.91,4.83-7.637,3.282-7.823,4.2-6.146,12.274,3.542,17.065,17.165,31.4,32.548,34.3a33.406,33.406,0,0,0,22.965-3.437c10.852-6.1,21.257-13,31.838-19.582a17.4,17.4,0,0,1,4.413-2.335c-1.292,6.3-2.778,13-7.436,17.04-14.107,12.23-29.354,22.958-47.994,27.325-17.287,4.05-33.652,2.48-48.416-8.533-12.188-9.09-17.038-21.7-18.218-36.233-.117-1.445-.309-2.884-.632-5.847-6.291,11.061-13.2,19.909-23.841,26.246,6.515,2.177,12.134,3.948,17.677,5.929,12.894,4.607,15.76,11.6,10.516,24.263C385.7,391.568,376.4,399.995,365.3,406.4c-10.151,5.859-20.739,11.012-31.384,15.935-3.68,1.7-4.63,3.949-4.756,7.475-.679,19.06,14.05,37.583,34.01,42.106,16.708,3.785,33.156,1.636,49.273-3.464,6.361-2.013,12.571-4.529,18.76-7.038a6.483,6.483,0,0,0,3.329-3.122c3.835-9.485,7.444-19.062,11.252-28.941-3.885-2.069-4.544-6.121-4.374-10.662.341-9.135,4.317-16.789,9.942-23.861-1.217,3.476-2.649,6.895-3.59,10.445a40.006,40.006,0,0,0-1.742,10.462c.02,1.976,1.5,5.019,3.055,5.587,1.519.555,4.025-1.307,5.976-2.339.837-.442,1.365-1.468,2.346-2.026-.83,4.67-1.933,9.147-6.4,11.869-.729.443-1.716.929-1.967,1.62a234.6,234.6,0,0,0-8.344,26.543c3.918-2.271,8.051-4.246,11.711-6.876,7.963-5.721,15.726-11.724,23.486-17.722,3.43-2.65,5.232-6.248,4-10.6-2.492-8.817-4.718-17.768-8.078-26.258-1.92-4.852-3.235-8.994-.783-13.9,1.316-2.63,2-5.577,3.3-9.343a67.926,67.926,0,0,1,4.008,6.229c4.921,10,21.213,7.736,26.407,2.895a4.637,4.637,0,0,0,1-3.522,12.145,12.145,0,0,0-1.692-4.084c-4.228-7.667-3.591-16.289,2.485-24.694,1.821,4.218,3.806,7.812,4.948,11.657a41.676,41.676,0,0,1-1.758,28.809c-4.614,10.848-11.3,14.955-23.347,14.7-.3,5.4-.516,10.836-.925,16.26A115,115,0,0,1,484.1,432.52c-1.631,8.951-5.632,16.675-13.208,22.006-9.957,7.008-20,13.912-30.249,20.474-2.846,1.821-3.183,3.275-1.947,6.042,3.039,6.808,9.531,10.017,18.879,7.6a49.094,49.094,0,0,0,16.383-7.544c15.6-11.4,30.751-23.418,45.979-35.319a5.53,5.53,0,0,0,1.849-3.983c-1.166-27.958-2.3-55.92-3.8-83.861-1.794-33.286-3.878-66.556-5.939-99.827-2.19-35.349-4.081-70.724-6.918-106.021-1.618-20.119-4.625-40.141-7.508-60.135-1.048-7.269-.386-14.231,4.588-21.387,1.308,3.068,2.958,5.561,3.423,8.257,2.595,15.072,5.963,30.114,7.115,45.314,3.587,47.331,6.565,94.714,9.278,142.105,3.232,56.455,5.943,112.939,8.887,169.409.052,1,.2,1.994.317,3.121l22.982-8.442c-1.851-10.554-4.192-21.427-5.583-32.419-2.092-16.523-3.89-33.1-5.15-49.708-2.578-33.976-4.829-67.977-7-101.981-2.022-31.634-3.816-63.283-5.616-94.931-1-17.529-1.781-35.071-2.717-52.6a16.49,16.49,0,0,0-.943-5.7c-3.789-8.549,1.559-14.983,4.417-22.273,4.2,3.936,16.962,37.621,16.361,43.806l-7.9-6.646c0,5.869-.29,11.612.046,17.318q3.814,64.846,7.848,129.681c2.312,37.279,4.495,74.569,7.222,111.818,1.052,14.368,3.521,28.628,5.208,42.953,1.308,11.117,7.355,18.53,17.393,22.946,3.535,1.555,7.065,3.179,10.728,4.37,3.572,1.162,4.592,3.361,3.917,6.807-.768,3.923-1.447,7.864-2.294,12.508-2.094-.767-3.842-1.308-5.511-2.032-16.726-7.249-33.237-6.524-49.638,1.13-2.288,1.068-2.517,2.291-1.754,4.549,3.787,11.21,16.542,17.892,29.666,16.293,14.372-1.751,24.97-9.655,34.721-19.394a90.923,90.923,0,0,1,7.581-6.915c.865-.688,2.416-.513,3.653-.733a11.882,11.882,0,0,1,.269,3.361c-2.531,11.954,2.257,18.33,14.479,19.55,11.5,1.149,20.314-3.022,26.6-12.691,2.27-3.494,4.547-6.988,6.994-10.357A32.887,32.887,0,0,1,661,445.231l1.548.733c-.408,2.45-.424,5.051-1.3,7.318-1.977,5.091.409,8.25,4.182,10.957,5.31,3.809,12.967,3.609,17.445-.614-7.7-7.426.766-13.374,1.072-20.2l1.687-.435c1.061,1.757,2.578,3.386,3.108,5.29,3.167,11.389,1.245,22-6.56,30.9-7.518,8.577-18.95,8.038-26.343-.637-1.325-1.555-2.539-3.2-2.58-3.209-4.561,3.782-8.931,7.828-13.727,11.283-7.22,5.2-15.453,5.958-23.888,3.847-6.82-1.707-11.032-6.207-12.32-13.223-.477-2.6-.828-5.215-1.424-9.02-2.148,1.773-3.687,2.948-5.119,4.242-5.937,5.362-11.269,11.641-17.889,15.944-10.612,6.9-22.67,8.151-34.709,3.835-12.263-4.395-18.433-13.946-20.422-26.494-.159-1.009-.317-2.019-.613-3.907-3.42,2.27-6.554,4.1-9.409,6.29-11.449,8.789-22.739,17.786-34.25,26.493a61.27,61.27,0,0,1-11.412,6.878c-14.338,6.54-28.774-.312-33.91-15.854-.641-1.942-1.183-3.916-1.621-5.378-10.438,3.379-20.432,7.314-30.775,9.8-15.685,3.767-31.726,4.992-46.794-2.281-18.568-8.962-28.321-24.321-29.568-44.906-.329-5.433-.05-10.9-.05-16.685-3.085,1.083-6.518,2.335-9.981,3.5-12.361,4.153-24.86,7.119-38.077,5.052-19.9-3.112-32.757-16.467-34.979-36.6-.406-3.677-.678-7.368-1.045-11.42-6.247,1.9-12.242,4.026-18.39,5.522-13.12,3.193-26.283,3.912-38.912-1.951-15.119-7.019-21.469-20.089-22.792-35.783a97.321,97.321,0,0,1,10.765-54.412c.334-.635.586-1.312,1.005-2.261-8.408-4.068-9.048-11.648-8.714-19.424.832-19.356,7.681-36.852,17.33-53.338,4.034-6.892,8.7-13.415,13.08-20.1l1.292.652c-.612,1.472-1.194,2.957-1.842,4.413-6.828,15.331-14.829,30.24-18.132,46.886a46.189,46.189,0,0,0-.454,14.574c1.032,8.1,8.136,10.66,14.2,5.24,3.6-3.22,6.573-7.145,10.4-11.384a16.549,16.549,0,0,1-.545,3.358c-3.022,6.928-5.673,14.075-9.37,20.629a18.567,18.567,0,0,1-8.677,7.859,10.534,10.534,0,0,0-6.731,6.76c-3.948,10.155-7.414,20.424-7.554,31.476-.294,23.249,13.917,38.585,37.1,39.991,12.685.77,24.858-1.858,36.66-6.225,1.361-.5,2.619-2.668,2.977-4.274a93.15,93.15,0,0,1,14.122-32.53,24.333,24.333,0,0,1,2.238-2.766C260.587,329.356,261.108,329.319,262.418,328.835ZM385.24,277.694c-1.987.724-2.667.981-3.352,1.219-19.785,6.883-39.3,2.49-52.678-14.853a4.392,4.392,0,0,0-3.882-1.2q-8.6,3.069-16.938,6.837a5.008,5.008,0,0,0-2.5,3.545c-.663,12.514-6.522,22.007-16.424,29.289-2.358,1.734-4.686,3.507-7.588,5.681,1.91.639,3.128,1.034,4.338,1.452,5.334,1.84,10.749,3.479,15.98,5.576,9.273,3.718,12.082,10.086,9,19.664a46.711,46.711,0,0,1-13.416,20.731c-11.765,10.6-25.782,17.491-40.014,23.96-10.559,4.8-10.974,5.685-5.677,16.441.459.932.953,1.852,1.5,2.732,9.741,15.608,24.852,18.614,41.571,17.453,14.71-1.022,28.629-5.615,41.806-11.724,14.792-6.857,28.949-15.088,43.32-22.839,1.7-.914,2.992-2.569,5.4-4.7-19.277-8.438-39.032-11.364-58.111-17.5a74.369,74.369,0,0,0,1.847-8.447c.451-4.39,2.731-6.829,6.781-8.342,6.68-2.5,13.516-4.815,19.749-8.2a142.235,142.235,0,0,0,22.27-14.457,19.919,19.919,0,0,0,6.7-12.123C385.917,298.217,385.24,288.373,385.24,277.694Zm-54.861-34.1c2.825-1.589,4.668-2.531,6.416-3.625,12.658-7.922,12.966-10.921,2.09-21.32-2.736-2.617-5.667-5.063-9.832-2.724-4.026,2.261-6.86,7.585-5.458,11.64C325.414,232.826,327.907,237.85,330.379,243.6Zm-42.46,13.19c-4.516-8.079-10.678-11.253-17.033-9.192-1.678.544-2.925,2.416-4.37,3.679,1.384,1.521,2.6,4.129,4.181,4.366C276.132,256.457,281.691,256.445,287.919,256.788Z" fill="#177703"/>
    <path id="Path_3" data-name="Path 3" d="M475.394,70.724c5.783,13.951,11.989,27.743,16.126,42.315l-1.459,1.086-8.234-7.024c0,2.185-.093,3.6.014,5,2.221,29.22,4.641,58.425,6.634,87.66,1.1,16.16,2.5,32.41,1.845,48.542-.411,10.161-4.307,20.192-6.784,30.247-.406,1.649-1.559,3.114-2.367,4.665l-1.16-.139c0-1.479.013-2.958,0-4.436-.18-17.086.3-34.209-.684-51.248-2.09-36.235-4.827-72.434-7.551-108.629-.777-10.317-2.826-20.544-3.455-30.863-.227-3.727,1.909-7.632,3.135-11.4a59.994,59.994,0,0,1,2.466-5.647Z" fill="#177703"/>
    <path id="Path_4" data-name="Path 4" d="M596.851,383.664l91.408-33.824c-2,6.774-4.575,10.758-10.769,13.105-36.125,13.69-72.047,27.918-108.043,41.95-1.316.513-2.694.87-4.612,1.482,1.821-6.937,2.933-13.215,11.058-14.965,4.888-1.053,9.471-3.473,14.242-5.13a4.621,4.621,0,0,0,3.572-4.238c5.19-30.462-3.672-57.042-22.112-80.977-1.971-2.558-2.475-4.625-1.126-7.589,1.72-3.779,2.946-7.783,4.405-11.682.1-.256.367-.445.559-.663,9.953,6.736,21.043,30.364,23.629,47.951C601.727,347.2,601.955,365.141,596.851,383.664Z" fill="url(#linear-gradient-2)"/>
    <path id="Path_5" data-name="Path 5" d="M387.52,125.243c2.4-4.472,4.762-8.577,6.829-12.826,1.392-2.86,2.993-3.81,5.883-1.962q9.383,6,18.875,11.83c2.63,1.623,3.275,3.774,1.815,6.4-2.88,5.187-5.878,10.309-8.836,15.452-1.392,2.42-2.954,1.6-4.782.413-6.714-4.37-13.5-8.629-20.579-13.132l-9.8,16.608-25.67-16.286c3.406-6.4,6.745-12.657,10.06-18.924,1.416-2.677,3.384-1.924,5.259-.778,5.829,3.562,11.608,7.206,17.4,10.832C385.073,123.565,386.138,124.318,387.52,125.243Z" fill="url(#linear-gradient-3)"/>
    <path id="Path_6" data-name="Path 6" d="M327.164,174.479c-2.73,4.757-5.281,9.067-7.692,13.455-1.515,2.759-3.117,2.848-5.679,1.125-6.4-4.31-12.951-8.42-19.542-12.443-1.959-1.2-2.364-2.22-1.218-4.261,2.909-5.178,5.737-10.409,8.381-15.727,1.432-2.881,3.163-3.091,5.672-1.537,6.923,4.288,13.881,8.519,21.122,12.955,2.315-4.306,4.781-8.678,7.031-13.159,1.31-2.612,2.887-3.06,5.31-1.519q9.4,5.975,18.869,11.83c2.764,1.7,3.542,3.931,1.958,6.756q-4.35,7.758-8.885,15.411c-1.462,2.479-3.12,1.28-4.851.163C340.927,183.2,334.168,178.934,327.164,174.479Z" fill="url(#linear-gradient-4)"/>
    <path id="Path_7" data-name="Path 7" d="M191.779,426.036c-2.73,4.757-5.281,9.067-7.692,13.455-1.516,2.759-3.117,2.848-5.679,1.125-6.406-4.31-12.951-8.419-19.542-12.443-1.959-1.2-2.364-2.22-1.218-4.261,2.909-5.178,5.737-10.409,8.381-15.727,1.432-2.881,3.162-3.091,5.672-1.537,6.923,4.288,13.881,8.519,21.122,12.955,2.315-4.3,4.781-8.678,7.03-13.159,1.311-2.612,2.888-3.06,5.311-1.519q9.4,5.975,18.868,11.83c2.765,1.7,3.543,3.931,1.959,6.756q-4.35,7.758-8.885,15.412c-1.462,2.478-3.12,1.279-4.851.162C205.542,434.753,198.783,430.491,191.779,426.036Z" fill="url(#linear-gradient-5)"/>
    <path id="Path_8" data-name="Path 8" d="M280.856,197.329c-1.985,3.92-3.606,7.571-5.611,11-5.762,9.84-5.807,9.779-15.136,3.83-4.5-2.868-9.013-5.72-13.636-8.379-2.205-1.268-3.007-2.428-1.6-4.9,2.927-5.154,5.631-10.435,8.38-15.687,1.2-2.283,2.71-2.916,5.012-1.454,6.5,4.128,13.068,8.149,19.537,12.325C278.922,194.788,279.694,196.06,280.856,197.329Z" fill="url(#linear-gradient-6)"/>
    <path id="Path_9" data-name="Path 9" d="M385.545,112.786c-8.734-5.439-16.546-10.228-24.227-15.22-.674-.438-1.03-2.466-.617-3.3,2.822-5.713,5.757-11.383,9.006-16.86.541-.912,3.237-1.6,4.171-1.057,6.8,3.921,13.485,8.054,19.98,12.456,1.2.814,2.366,3.625,1.851,4.71C392.636,100,389.065,106.244,385.545,112.786Z" fill="url(#linear-gradient-7)"/>
    <path id="Path_10" data-name="Path 10" d="M414.876,440.46c-1.136-.658-2.047-1.143-2.916-1.694-6.382-4.045-12.707-8.186-19.163-12.111-2.047-1.244-2.723-2.269-1.425-4.55,2.929-5.149,5.681-10.4,8.386-15.675,1.314-2.561,2.961-3.034,5.362-1.524,6.4,4.021,12.819,8,19.221,12.006,2.107,1.319,3.347,3.094,1.985,5.555-3.077,5.561-6.249,11.07-9.471,16.547C416.469,439.669,415.53,440,414.876,440.46Z" fill="url(#linear-gradient-8)"/>
    <path id="Path_11" data-name="Path 11" d="M426.93,183.2c1.888,5.418,4.414,10.719,5.434,16.3.644,3.525-.29,7.739-1.7,11.152-2.528,6.106-7.783,6.229-11.53.718-.564-.83-1.051-1.712-1.771-2.893-1.167,2.056-1.764,4.314-3.229,5.4-2.114,1.572-4.994,3.355-7.293,3.061-2-.256-4.276-2.977-5.276-5.142-1.062-2.3-.788-5.216-1.051-7.869-.279-2.818.7-5.7-2.2-8.151-1.873-1.588.575-5.636,6.008-9.252,0,3.579-.088,6.354.022,9.122.139,3.5-.156,7.169.828,10.437,1.1,3.661,3.946,4.068,7.064,1.727,3.771-2.83,3.834-6.66,3.064-10.876-.75-4.106-3.032-8.318.518-12.908.6.776,1.4,1.361,1.556,2.084.959,4.489,1.618,9.047,2.7,13.5.532,2.188,1.278,4.76,2.834,6.12,1.149,1,3.766.327,5.728.4-.086-1.6.149-3.3-.327-4.779-.956-2.958-2.872-5.7-3.327-8.7-.467-3.083.333-6.359.579-9.551Z" fill="url(#linear-gradient-9)"/>
    <path id="Path_12" data-name="Path 12" d="M666.566,315.076c-7.6-5.492-8.692-5.173-11.149,3.524-1.572,5.563-2.532,11.3-3.99,16.895a64.285,64.285,0,0,1-2.786,7.2l-1.419-.077a42.6,42.6,0,0,0-1.172-5.236c-1.684-4.753-3.453-9.48-5.343-14.156-1-2.487-1.893-4.663-5.835-3.373-1.54.5-4.542-2.2-6.243-4.034-.738-.795-.337-3.319.346-4.645,3.376-6.556,7.02-7.236,11.41-1.206,3.316,4.556,5.054,10.271,7.411,15.508a38.615,38.615,0,0,1,1.335,4.843c1.537-6.5,2.642-11.941,4.156-17.264a34.558,34.558,0,0,1,3.478-7.651c1.384-2.4,3.459-4.609,6.509-3.3,3.339,1.43,5.42,4.231,5.04,8.1C668.164,311.724,667.274,313.174,666.566,315.076Z" fill="url(#linear-gradient-10)"/>
    <path id="Path_13" data-name="Path 13" d="M211.944,359.559c-2.98-7.863-5.362-14.358-7.919-20.783-.864-2.17-1.63-4.107-5.207-2.906-1.619.544-4.735-1.862-6.415-3.644-.844-.9-.492-3.61.178-5.122,3.174-7.167,6.993-6.69,11.11-1.153,4.132,5.556,6.494,12.429,9.42,18.3.934-3.792,1.982-8.731,3.4-13.561.913-3.105,1.89-6.4,3.752-8.945,1.339-1.83,4.488-3.9,6.295-3.488,3.444.777,5.52,3.968,5.145,7.858-.158,1.634-1.028,3.2-1.625,4.944-7.647-5.29-8.852-4.889-11.3,4.066-1.368,5.012-2.071,10.2-3.374,15.234A93.5,93.5,0,0,1,211.944,359.559Z" fill="url(#linear-gradient-11)"/>
    <path id="Path_14" data-name="Path 14" d="M656.323,410.03c-.707-.108-.883-.082-.979-.158-6.368-5.039-7.834-4.649-10.058,3.374-1.742,6.284-2.932,12.72-4.576,19.034-.525,2.017-1.719,3.858-2.75,6.09-3.18-8.54-6.091-16.36-8.905-23.916-2.742.275-4.838,1.15-5.976.456-2.144-1.309-5.289-3.6-5.2-5.341a11.626,11.626,0,0,1,4.288-7.774c1.148-.867,5.614.579,6.8,2.247,3.209,4.512,5.567,9.652,8.042,14.653.811,1.639.944,3.613,2.071,5.5,1.186-4.816,2.208-9.681,3.618-14.431a41.566,41.566,0,0,1,3.723-8.986c1.4-2.413,3.893-5.317,6.752-3.248,2.287,1.655,3.623,5,4.644,7.857C658.257,406.627,656.852,408.531,656.323,410.03Z" fill="url(#linear-gradient-12)"/>
    <path id="Path_15" data-name="Path 15" d="M372.408,423.536c-1.687,5.179-3.39,10.352-5.047,15.541a12.821,12.821,0,0,0-.638,3.042c-.22,3.434-.641,7.277,3.245,8.88,3.542,1.462,5.2-1.8,7.056-4.038.376-.453.7-.949,1.05-1.425l.977.537c-1.322,3.081-2.451,6.265-4.022,9.213s-4.586,4.413-7.511,3.069c-2.057-.946-4.636-3.605-4.676-5.547a51.552,51.552,0,0,1,1.848-15.649c1.492-4.988,4.5-9.523,6.844-14.256Z" fill="url(#linear-gradient-13)"/>
    <path id="Path_16" data-name="Path 16" d="M231.639,227.794c-1.32,3.854-2.808,7.661-3.9,11.578-.831,2.965-1.723,6.107-1.526,9.1.14,2.137,1.586,5.055,3.309,5.93,1.25.634,3.956-1.418,5.915-2.455.712-.377,1.143-1.287,1.7-1.953l1.3.772c-1.873,3.347-3.328,7.061-5.8,9.879-1.161,1.322-4.826,1.9-6.39,1.046-1.971-1.078-4.063-3.927-4.135-6.077a43.154,43.154,0,0,1,1.69-13.981c1.543-4.993,4.357-9.592,6.618-14.363Z" fill="url(#linear-gradient-14)"/>
    <path id="Path_17" data-name="Path 17" d="M460.2,308.528c-1.441,4-3.119,7.94-4.244,12.03a31.569,31.569,0,0,0-1.289,9.588c.075,1.716,1.64,4.408,3.018,4.76,1.674.428,3.944-.98,5.789-1.923.962-.492,1.564-1.69,3.072-2.3-.451,1.564-.789,3.172-1.372,4.684-2.237,5.8-5.343,8.094-9.664,7.27-3.9-.745-5.539-3.894-5.242-10.383C450.683,323.23,454.225,315.4,460.2,308.528Z" fill="url(#linear-gradient-15)"/>
    <path id="Path_18" data-name="Path 18" d="M343.725,308.943a82.61,82.61,0,0,1-3.833,8.635c-1.618,2.795-4.64,4.522-7.538,3.049-2.138-1.087-4.645-3.92-4.732-6.066a45.732,45.732,0,0,1,1.771-14.823c1.461-4.849,4.32-9.276,6.567-13.888l1.138.493c-1.3,3.84-2.791,7.631-3.855,11.536a32.16,32.16,0,0,0-1.552,9.528c.082,1.991,1.549,4.94,3.135,5.557,1.468.571,3.98-1.275,5.911-2.288.833-.437,1.361-1.458,2.027-2.213Z" fill="url(#linear-gradient-16)"/>
    <path id="Path_19" data-name="Path 19" d="M316.054,389.718c-1.443,2.986-2.346,6.473-4.5,8.791-1.594,1.712-5.076,2.957-7.253,2.444-1.913-.451-4.284-3.5-4.548-5.633-1.334-10.8,2.735-20.091,9.627-28.35-1.478,4.131-3.208,8.194-4.348,12.416a30.309,30.309,0,0,0-1.121,9.583c.1,1.69,1.673,4.166,3.127,4.652s3.67-.909,5.368-1.821c1.055-.566,1.768-1.771,2.634-2.689Z" fill="url(#linear-gradient-17)"/>
  </g>
</svg>
